<svg width="80" height="24" viewBox="0 0 80 24" fill="none" xmlns="http://www.w3.org/2000/svg">
<path d="M77.037 0H2.96296C1.32656 0 0 1.32656 0 2.96296V20.7407C0 22.3771 1.32656 23.7037 2.96296 23.7037H77.037C78.6734 23.7037 80 22.3771 80 20.7407V2.96296C80 1.32656 78.6734 0 77.037 0Z" fill="black"/>
<path d="M77.037 0.4742C77.6969 0.474962 78.3295 0.737446 78.7961 1.20407C79.2627 1.67069 79.5252 2.30333 79.5259 2.96321V20.741C79.5251 21.4009 79.2627 22.0335 78.7961 22.5001C78.3295 22.9667 77.6969 23.2292 77.037 23.23H2.96296C2.30308 23.2292 1.67045 22.9668 1.20385 22.5001C0.737255 22.0335 0.474803 21.4009 0.474074 20.741V2.96321C0.474792 2.30332 0.737241 1.67067 1.20384 1.20405C1.67044 0.737428 2.30308 0.474949 2.96296 0.4742H77.037ZM77.037 0.000244141H2.96296C2.17784 0.00254227 1.42554 0.315449 0.87037 0.870615C0.315204 1.42578 0.00229813 2.17809 0 2.96321L0 20.741C0.00229813 21.5261 0.315204 22.2784 0.87037 22.8336C1.42554 23.3887 2.17784 23.7017 2.96296 23.7039H77.037C77.8222 23.7017 78.5745 23.3887 79.1296 22.8336C79.6848 22.2784 79.9977 21.5261 80 20.741V2.96321C79.9977 2.17809 79.6848 1.42578 79.1296 0.870615C78.5745 0.315449 77.8222 0.00254227 77.037 0.000244141Z" fill="#A6A6A6"/>
</svg>
