<svg width="51" height="17" viewBox="0 0 51 17" fill="none" xmlns="http://www.w3.org/2000/svg">
<path d="M3.83626 2.1334C3.8472 2.35415 3.81309 2.57481 3.73602 2.78196C3.65895 2.9891 3.54053 3.17839 3.38797 3.33831C3.21699 3.51563 3.0105 3.65486 2.78201 3.74689C2.55352 3.83891 2.30817 3.88166 2.06202 3.87233C1.8143 3.87455 1.56864 3.82723 1.33947 3.73315C1.1103 3.63906 0.902248 3.50012 0.727545 3.32448C0.552842 3.14884 0.415014 2.94005 0.322157 2.71038C0.2293 2.48072 0.18329 2.2348 0.186832 1.9871C0.183318 1.73939 0.229345 1.49347 0.322208 1.2638C0.41507 1.03413 0.552895 0.825329 0.727588 0.649672C0.902281 0.474015 1.11032 0.335041 1.33948 0.240916C1.56864 0.14679 1.81429 0.0994114 2.06202 0.101562C2.31672 0.100792 2.56887 0.152287 2.80287 0.25286C3.0202 0.340956 3.21364 0.479141 3.36745 0.65616L3.05018 0.973675C2.92927 0.831371 2.77729 0.718747 2.60596 0.644492C2.43463 0.570238 2.24853 0.536338 2.06202 0.545409C1.87428 0.544438 1.68827 0.581367 1.51514 0.653984C1.34201 0.726602 1.18531 0.833414 1.05444 0.968024C0.923562 1.10263 0.821201 1.26227 0.753483 1.43738C0.685765 1.61249 0.654083 1.79946 0.660335 1.9871C0.655859 2.26816 0.734946 2.54421 0.887567 2.78026C1.04019 3.01631 1.25947 3.20172 1.5176 3.31299C1.77574 3.42425 2.0611 3.45635 2.3375 3.40522C2.6139 3.35409 2.8689 3.22203 3.07015 3.02579C3.25537 2.82621 3.36274 2.56673 3.37269 2.29463H2.06202V1.86107H3.811C3.82754 1.95091 3.83599 2.04205 3.83626 2.1334Z" fill="white"/>
<path d="M6.60913 0.625901H4.96537V1.77029H6.44761V2.20391H4.96537V3.3483H6.60913V3.79184H4.50185V0.182355H6.60913V0.625901Z" fill="white"/>
<path d="M8.56488 3.79184H8.10075V0.625901H7.09263V0.182355H9.57301V0.625901H8.56488V3.79184Z" fill="white"/>
<path d="M11.3678 3.79184V0.182355H11.8313V3.79184H11.3678Z" fill="white"/>
<path d="M13.8886 3.79184H13.4245V0.625901H12.4164V0.182355H14.8968V0.625901H13.8886V3.79184Z" fill="white"/>
<path d="M19.5922 3.32538C19.2409 3.67565 18.765 3.87234 18.2689 3.87234C17.7728 3.87234 17.297 3.67565 16.9456 3.32538C16.7718 3.14934 16.6352 2.94015 16.5439 2.71024C16.4525 2.48034 16.4083 2.23442 16.414 1.9871C16.4083 1.73978 16.4525 1.49386 16.5439 1.26395C16.6352 1.03405 16.7718 0.82486 16.9456 0.648821C17.1193 0.475124 17.3255 0.33738 17.5524 0.243475C17.7794 0.149569 18.0226 0.101345 18.2682 0.101563C18.5139 0.101781 18.757 0.150437 18.9838 0.244745C19.2106 0.339053 19.4165 0.477162 19.5899 0.651167C19.7638 0.826743 19.9007 1.03546 19.9924 1.26495C20.0842 1.49443 20.1289 1.74001 20.1239 1.9871C20.1294 2.2344 20.0851 2.48028 19.9938 2.71016C19.9025 2.94004 19.7659 3.14925 19.5922 3.32538ZM17.2881 3.02314C17.5483 3.2829 17.901 3.42879 18.2686 3.42879C18.6363 3.42879 18.9889 3.2829 19.2491 3.02314C19.3826 2.88653 19.4869 2.72429 19.5559 2.54622C19.6249 2.36815 19.657 2.17794 19.6504 1.9871C19.657 1.79625 19.6249 1.60605 19.5559 1.42798C19.4869 1.2499 19.3826 1.08766 19.2491 0.951055C18.9889 0.691296 18.6363 0.545402 18.2686 0.545402C17.901 0.545402 17.5483 0.691296 17.2881 0.951055C17.1549 1.08777 17.0507 1.25005 16.9818 1.4281C16.913 1.60616 16.8809 1.79631 16.8875 1.9871C16.8809 2.17789 16.913 2.36804 16.9818 2.5461C17.0507 2.72415 17.1549 2.88643 17.2881 3.02314Z" fill="white"/>
<path d="M20.7748 3.79184V0.182355H21.3394L23.0936 2.99024H23.1136L23.0936 2.29463V0.182355H23.5577V3.79184H23.0736L21.2383 0.847944H21.2184L21.2383 1.54355V3.79184H20.7748Z" fill="white"/>
<path d="M3.83626 2.1334C3.8472 2.35415 3.81309 2.57481 3.73602 2.78196C3.65895 2.9891 3.54053 3.17839 3.38797 3.33831C3.21699 3.51563 3.0105 3.65486 2.78201 3.74689C2.55352 3.83891 2.30817 3.88166 2.06202 3.87233C1.8143 3.87455 1.56864 3.82723 1.33947 3.73315C1.1103 3.63906 0.902248 3.50012 0.727545 3.32448C0.552842 3.14884 0.415014 2.94005 0.322157 2.71038C0.2293 2.48072 0.18329 2.2348 0.186832 1.9871C0.183318 1.73939 0.229345 1.49347 0.322208 1.2638C0.41507 1.03413 0.552895 0.825329 0.727588 0.649672C0.902281 0.474015 1.11032 0.335041 1.33948 0.240916C1.56864 0.14679 1.81429 0.0994114 2.06202 0.101562C2.31672 0.100792 2.56887 0.152287 2.80287 0.25286C3.0202 0.340956 3.21364 0.479141 3.36745 0.65616L3.05018 0.973675C2.92927 0.831371 2.77729 0.718747 2.60596 0.644492C2.43463 0.570238 2.24853 0.536338 2.06202 0.545409C1.87428 0.544438 1.68827 0.581367 1.51514 0.653984C1.34201 0.726602 1.18531 0.833414 1.05444 0.968024C0.923562 1.10263 0.821201 1.26227 0.753483 1.43738C0.685765 1.61249 0.654083 1.79946 0.660335 1.9871C0.655859 2.26816 0.734946 2.54421 0.887567 2.78026C1.04019 3.01631 1.25947 3.20172 1.5176 3.31299C1.77574 3.42425 2.0611 3.45635 2.3375 3.40522C2.6139 3.35409 2.8689 3.22203 3.07015 3.02579C3.25537 2.82621 3.36274 2.56673 3.37269 2.29463H2.06202V1.86107H3.811C3.82754 1.95091 3.83599 2.04205 3.83626 2.1334Z" stroke="white" stroke-width="0.2" stroke-miterlimit="10"/>
<path d="M6.60913 0.625901H4.96537V1.77029H6.44761V2.20391H4.96537V3.3483H6.60913V3.79184H4.50185V0.182355H6.60913V0.625901Z" stroke="white" stroke-width="0.2" stroke-miterlimit="10"/>
<path d="M8.56488 3.79184H8.10075V0.625901H7.09263V0.182355H9.57301V0.625901H8.56488V3.79184Z" stroke="white" stroke-width="0.2" stroke-miterlimit="10"/>
<path d="M11.3678 3.79184V0.182355H11.8313V3.79184H11.3678Z" stroke="white" stroke-width="0.2" stroke-miterlimit="10"/>
<path d="M13.8886 3.79184H13.4245V0.625901H12.4164V0.182355H14.8968V0.625901H13.8886V3.79184Z" stroke="white" stroke-width="0.2" stroke-miterlimit="10"/>
<path d="M19.5922 3.32538C19.2409 3.67565 18.765 3.87234 18.2689 3.87234C17.7728 3.87234 17.297 3.67565 16.9456 3.32538C16.7718 3.14934 16.6352 2.94015 16.5439 2.71024C16.4525 2.48034 16.4083 2.23442 16.414 1.9871C16.4083 1.73978 16.4525 1.49386 16.5439 1.26395C16.6352 1.03405 16.7718 0.82486 16.9456 0.648821C17.1193 0.475124 17.3255 0.33738 17.5524 0.243475C17.7794 0.149569 18.0226 0.101345 18.2682 0.101563C18.5139 0.101781 18.757 0.150437 18.9838 0.244745C19.2106 0.339053 19.4165 0.477162 19.5899 0.651167C19.7638 0.826743 19.9007 1.03546 19.9924 1.26495C20.0842 1.49443 20.1289 1.74001 20.1239 1.9871C20.1294 2.2344 20.0851 2.48028 19.9938 2.71016C19.9025 2.94004 19.7659 3.14925 19.5922 3.32538ZM17.2881 3.02314C17.5483 3.2829 17.901 3.42879 18.2686 3.42879C18.6363 3.42879 18.9889 3.2829 19.2491 3.02314C19.3826 2.88653 19.4869 2.72429 19.5559 2.54622C19.6249 2.36815 19.657 2.17794 19.6504 1.9871C19.657 1.79625 19.6249 1.60605 19.5559 1.42798C19.4869 1.2499 19.3826 1.08766 19.2491 0.951055C18.9889 0.691296 18.6363 0.545402 18.2686 0.545402C17.901 0.545402 17.5483 0.691296 17.2881 0.951055C17.1549 1.08777 17.0507 1.25005 16.9818 1.4281C16.913 1.60616 16.8809 1.79631 16.8875 1.9871C16.8809 2.17789 16.913 2.36804 16.9818 2.5461C17.0507 2.72415 17.1549 2.88643 17.2881 3.02314Z" stroke="white" stroke-width="0.2" stroke-miterlimit="10"/>
<path d="M20.7748 3.79184V0.182355H21.3394L23.0936 2.99024H23.1136L23.0936 2.29463V0.182355H23.5577V3.79184H23.0736L21.2383 0.847944H21.2184L21.2383 1.54355V3.79184H20.7748Z" stroke="white" stroke-width="0.2" stroke-miterlimit="10"/>
<path d="M16.2995 9.0567C15.7938 9.05861 15.3001 9.2103 14.8806 9.49261C14.4611 9.77492 14.1347 10.1752 13.9425 10.6429C13.7503 11.1106 13.7011 11.6247 13.8009 12.1204C13.9007 12.6161 14.1452 13.0711 14.5034 13.428C14.8616 13.7848 15.3175 14.0276 15.8136 14.1255C16.3096 14.2234 16.8236 14.1722 17.2906 13.9782C17.7575 13.7843 18.1566 13.4563 18.4373 13.0358C18.718 12.6152 18.8678 12.1209 18.8678 11.6153C18.8728 11.2771 18.8097 10.9413 18.6822 10.628C18.5548 10.3147 18.3656 10.0303 18.126 9.79154C17.8864 9.55283 17.6012 9.36476 17.2874 9.23852C16.9736 9.11227 16.6376 9.05044 16.2995 9.0567ZM16.2995 13.166C15.9881 13.1882 15.6772 13.1161 15.4073 12.9592C15.1375 12.8022 14.9211 12.5677 14.7864 12.286C14.6517 12.0044 14.605 11.6887 14.6522 11.3801C14.6994 11.0716 14.8385 10.7843 15.0512 10.5559C15.264 10.3274 15.5406 10.1683 15.845 10.0992C16.1495 10.0302 16.4676 10.0544 16.7581 10.1687C17.0487 10.283 17.298 10.4821 17.4738 10.7401C17.6495 10.9981 17.7435 11.3031 17.7435 11.6153C17.753 11.8125 17.7229 12.0096 17.655 12.195C17.5871 12.3804 17.4828 12.5504 17.3482 12.6949C17.2137 12.8394 17.0516 12.9555 16.8715 13.0364C16.6913 13.1173 16.4969 13.1614 16.2995 13.166ZM10.6967 9.0567C10.1911 9.0586 9.69732 9.21028 9.27783 9.49258C8.85833 9.77489 8.53188 10.1752 8.33971 10.6429C8.14753 11.1106 8.09823 11.6247 8.19805 12.1204C8.29786 12.6161 8.54231 13.0711 8.90053 13.428C9.25875 13.7848 9.71467 14.0275 10.2107 14.1255C10.7068 14.2234 11.2208 14.1722 11.6877 13.9782C12.1547 13.7843 12.5537 13.4563 12.8344 13.0358C13.1152 12.6152 13.265 12.1209 13.265 11.6153C13.2699 11.2771 13.2068 10.9414 13.0794 10.6281C12.952 10.3147 12.7628 10.0303 12.5232 9.79156C12.2836 9.55285 11.9984 9.36478 11.6846 9.23853C11.3708 9.11229 11.0349 9.05045 10.6967 9.0567ZM10.6967 13.166C10.3853 13.1882 10.0744 13.1161 9.80458 12.9592C9.53471 12.8022 9.31835 12.5677 9.18366 12.286C9.04898 12.0044 9.0022 11.6887 9.04942 11.3801C9.09665 11.0716 9.23568 10.7843 9.44843 10.5559C9.66118 10.3274 9.93779 10.1683 10.2422 10.0992C10.5467 10.0302 10.8649 10.0544 11.1554 10.1687C11.4459 10.283 11.6952 10.4821 11.871 10.7401C12.0467 10.9981 12.1407 11.3031 12.1407 11.6153C12.1502 11.8125 12.1201 12.0096 12.0522 12.195C11.9843 12.3805 11.88 12.5504 11.7455 12.6949C11.6109 12.8394 11.4488 12.9555 11.2687 13.0364C11.0886 13.1173 10.8941 13.1614 10.6967 13.166ZM4.0319 9.84176V10.9272H6.62934C6.59187 11.4363 6.38353 11.9179 6.03811 12.2937C5.77782 12.5591 5.46479 12.7669 5.11924 12.9037C4.77368 13.0406 4.40327 13.1035 4.0319 13.0884C3.27269 13.0782 2.54806 12.7693 2.01482 12.2288C1.48157 11.6883 1.1826 10.9596 1.1826 10.2003C1.1826 9.44102 1.48157 8.71228 2.01482 8.17177C2.54806 7.63126 3.27269 7.32245 4.0319 7.31217C4.76114 7.30264 5.46469 7.58126 5.98968 8.08749L6.75532 7.32186C6.39711 6.96723 5.97171 6.68769 5.50405 6.49963C5.03639 6.31157 4.53589 6.21877 4.0319 6.22668C3.50521 6.21901 2.98225 6.31612 2.49342 6.51238C2.0046 6.70863 1.55967 7.0001 1.1845 7.36985C0.809331 7.73959 0.511413 8.18023 0.308065 8.66615C0.104718 9.15206 0 9.67355 0 10.2003C0 10.727 0.104718 11.2485 0.308065 11.7345C0.511413 12.2204 0.809331 12.661 1.1845 13.0308C1.55967 13.4005 2.0046 13.692 2.49342 13.8882C2.98225 14.0845 3.50521 14.1816 4.0319 14.1739C4.54653 14.1953 5.05981 14.1069 5.5377 13.9148C6.01558 13.7226 6.44714 13.431 6.80374 13.0594C7.43685 12.3683 7.77431 11.4569 7.7439 10.5202C7.74638 10.2927 7.72687 10.0655 7.68566 9.84176H4.0319ZM31.2885 10.6849C31.1348 10.2214 30.8421 9.81657 30.4502 9.52527C30.0583 9.23397 29.5863 9.07037 29.0982 9.0567C28.7694 9.05874 28.4445 9.12742 28.1431 9.25858C27.8416 9.38975 27.5699 9.58069 27.3443 9.81984C27.1188 10.059 26.944 10.3414 26.8307 10.65C26.7174 10.9586 26.6678 11.287 26.685 11.6153C26.6776 11.9517 26.738 12.2861 26.8628 12.5986C26.9875 12.9111 27.174 13.1953 27.411 13.4341C27.648 13.6729 27.9307 13.8615 28.2423 13.9886C28.5538 14.1158 28.8878 14.1788 29.2242 14.1739C29.6457 14.1763 30.0612 14.0739 30.4333 13.876C30.8055 13.678 31.1226 13.3908 31.3563 13.04L30.4841 12.4585C30.3534 12.6755 30.1686 12.8548 29.9477 12.9789C29.7268 13.1029 29.4775 13.1674 29.2242 13.166C28.9635 13.1759 28.7059 13.1074 28.4847 12.9691C28.2635 12.8309 28.0889 12.6293 27.9836 12.3907L31.4049 10.9757L31.2885 10.6849ZM27.7995 11.5378C27.7875 11.3516 27.8127 11.1648 27.8737 10.9885C27.9347 10.8121 28.0303 10.6497 28.1548 10.5107C28.2793 10.3717 28.4303 10.259 28.599 10.179C28.7676 10.0991 28.9505 10.0537 29.1369 10.0453C29.331 10.0325 29.5246 10.0772 29.6935 10.1737C29.8624 10.2702 29.9992 10.4143 30.0867 10.588L27.7995 11.5378ZM25.0179 14.0188H26.1422V6.49811H25.0179V14.0188ZM23.1765 9.6285H23.1378C22.9668 9.4428 22.7582 9.29573 22.5259 9.19712C22.2936 9.09851 22.0429 9.05063 21.7906 9.0567C21.1308 9.08477 20.5074 9.36661 20.0505 9.84338C19.5936 10.3201 19.3385 10.955 19.3385 11.6153C19.3385 12.2757 19.5936 12.9105 20.0505 13.3872C20.5074 13.864 21.1308 14.1458 21.7906 14.1739C22.0439 14.1807 22.2956 14.1321 22.5283 14.0317C22.7609 13.9313 22.9689 13.7814 23.1378 13.5924H23.1765V13.9607C23.1765 14.9396 22.6532 15.4629 21.81 15.4629C21.5289 15.4562 21.2563 15.366 21.0267 15.2037C20.7972 15.0415 20.6211 14.8146 20.521 14.5519L19.5421 14.959C19.7266 15.4082 20.041 15.792 20.4451 16.0614C20.8491 16.3308 21.3244 16.4733 21.81 16.4709C23.1281 16.4709 24.2426 15.6956 24.2426 13.8056V9.21172H23.1765V9.6285ZM21.8876 13.166C21.499 13.133 21.1369 12.9554 20.8731 12.6682C20.6092 12.3811 20.4628 12.0053 20.4628 11.6153C20.4628 11.2253 20.6092 10.8496 20.8731 10.5624C21.1369 10.2752 21.499 10.0976 21.8876 10.0646C22.0809 10.0741 22.2703 10.1223 22.4446 10.2066C22.6189 10.2908 22.7744 10.4092 22.9019 10.5548C23.0294 10.7004 23.1263 10.8702 23.1868 11.0541C23.2473 11.2379 23.2702 11.4321 23.254 11.625C23.2692 11.8166 23.2455 12.0094 23.1844 12.1917C23.1233 12.374 23.026 12.5422 22.8984 12.686C22.7709 12.8299 22.6156 12.9465 22.4419 13.029C22.2682 13.1115 22.0797 13.1581 21.8876 13.166ZM36.5547 6.49823H33.8649V14.0188H34.9873V11.1695H36.5547C36.8722 11.1869 37.1899 11.1394 37.4884 11.0299C37.7869 10.9204 38.06 10.7512 38.2909 10.5326C38.5218 10.314 38.7057 10.0506 38.8314 9.75853C38.9571 9.46646 39.0219 9.15183 39.0219 8.83387C39.0219 8.51591 38.9571 8.20128 38.8314 7.90921C38.7057 7.61715 38.5218 7.35377 38.2909 7.13518C38.06 6.91658 37.7869 6.74736 37.4884 6.63784C37.1899 6.52833 36.8722 6.48083 36.5547 6.49823ZM36.5837 10.1229H34.9873V7.54492H36.5837C36.7552 7.54137 36.9257 7.57208 37.0852 7.63526C37.2447 7.69844 37.39 7.79282 37.5126 7.91286C37.6351 8.03291 37.7325 8.17621 37.799 8.33436C37.8654 8.49251 37.8997 8.66234 37.8997 8.8339C37.8997 9.00546 37.8654 9.17529 37.799 9.33344C37.7325 9.49159 37.6351 9.63489 37.5126 9.75494C37.39 9.87498 37.2447 9.96936 37.0852 10.0325C36.9257 10.0957 36.7552 10.1264 36.5837 10.1229ZM43.521 9.04286C43.1113 9.01894 42.7035 9.11515 42.3477 9.31968C41.9919 9.52421 41.7036 9.82816 41.5181 10.1942L42.5147 10.6103C42.6135 10.4286 42.7631 10.2796 42.9453 10.1817C43.1275 10.0837 43.3342 10.041 43.5403 10.0587C43.825 10.031 44.1092 10.1172 44.3304 10.2985C44.5517 10.4799 44.6921 10.7416 44.7207 11.0263V11.1037C44.3602 10.9122 43.9581 10.8125 43.55 10.8134C42.476 10.8134 41.3827 11.4036 41.3827 12.5066C41.3931 12.7391 41.4502 12.9671 41.5504 13.1771C41.6506 13.3871 41.792 13.5748 41.9662 13.7291C42.1403 13.8834 42.3437 14.0012 42.5643 14.0754C42.7848 14.1496 43.018 14.1788 43.25 14.1611C43.5326 14.1777 43.8146 14.1183 44.0664 13.989C44.3183 13.8597 44.5308 13.6652 44.682 13.4258H44.7207V14.0063H45.8043V11.1231C45.8043 9.78786 44.8077 9.04286 43.521 9.04286ZM43.3855 13.1645C43.0178 13.1645 42.505 12.9808 42.505 12.526C42.505 11.9455 43.1436 11.7229 43.6951 11.7229C44.0533 11.7134 44.4075 11.8003 44.7207 11.9745C44.6795 12.3007 44.5215 12.6009 44.2761 12.8197C44.0306 13.0385 43.7143 13.161 43.3855 13.1645ZM49.7519 9.20733L48.4651 12.4679H48.4263L47.0912 9.20733H45.8817L47.8845 13.7644L46.7429 16.2994H47.9135L51 9.20733H49.7519ZM39.6411 14.0188H40.7634V6.49823H39.6411V14.0188Z" fill="white"/>
</svg>
